<?xml version="1.0" standalone="no"?>
<!DOCTYPE svg PUBLIC "-//W3C//DTD SVG 20010904//EN"
 "http://www.w3.org/TR/2001/REC-SVG-20010904/DTD/svg10.dtd">
<svg version="1.0" xmlns="http://www.w3.org/2000/svg"
 width="300.000000pt" height="134.000000pt" viewBox="0 0 300.000000 134.000000"
 preserveAspectRatio="xMidYMid meet">
<metadata>
Created by potrace 1.10, written by Peter Selinger 2001-2011
</metadata>
<g transform="translate(0.000000,134.000000) scale(0.100000,-0.100000)"
fill="#000000" stroke="none">
<path d="M854 665 c0 -148 2 -211 3 -138 2 72 2 194 0 270 -1 76 -3 17 -3
-132z"/>
<path d="M1447 693 c2 -105 4 -118 20 -118 15 0 17 13 20 118 2 115 2 117 -20
117 -22 0 -22 -2 -20 -117z"/>
<path d="M1920 788 c0 -14 8 -18 35 -18 l35 0 0 -98 c0 -91 1 -98 20 -98 19 0
20 7 20 98 l0 98 35 0 c27 0 35 4 35 18 0 15 -11 17 -90 17 -79 0 -90 -2 -90
-17z"/>
<path d="M2261 695 c1 -91 4 -115 15 -115 8 0 16 0 19 0 3 0 7 52 8 115 2 113
2 115 -20 115 -22 0 -23 -2 -22 -115z"/>
<path d="M1050 685 l0 -115 25 0 c23 0 25 3 25 53 l0 52 50 0 50 0 0 -52 c0
-50 2 -53 25 -53 l25 0 0 115 0 115 -25 0 c-23 0 -25 -3 -25 -47 l0 -48 -50 0
-50 0 0 48 c0 44 -2 47 -25 47 l-25 0 0 -115z"/>
<path d="M320 655 l0 -105 -25 0 c-14 0 -25 -4 -25 -10 0 -6 77 -10 210 -10
133 0 210 4 210 10 0 6 -10 10 -22 10 -22 0 -23 3 -23 102 l0 103 -162 3 -163
2 0 -105z m310 0 l0 -95 -150 0 -150 0 0 88 c0 49 3 92 7 95 3 4 71 7 150 7
l143 0 0 -95z"/>
<path d="M370 720 c0 -6 25 -10 58 -9 43 1 51 3 32 9 -36 12 -90 12 -90 0z"/>
<path d="M505 671 c16 -7 8 -10 -38 -16 -31 -4 -66 -5 -77 -2 -11 3 -20 0 -20
-5 0 -7 32 -8 97 -4 121 9 138 18 58 30 -27 4 -34 3 -20 -3z"/>
<path d="M499 622 c11 -8 3 -12 -30 -16 -99 -13 -100 -14 -4 -9 123 6 141 14
60 28 -28 4 -36 3 -26 -3z"/>
<path d="M1297 728 c-26 -20 -6 -44 23 -28 12 6 28 9 36 6 26 -10 14 -32 -22
-42 -20 -5 -43 -18 -51 -30 -12 -19 -11 -24 6 -45 18 -22 22 -23 52 -12 22 9
37 9 43 3 21 -21 26 -8 26 58 0 54 -4 72 -18 85 -22 20 -71 22 -95 5z m61
-119 c-19 -13 -43 -6 -43 11 0 20 49 31 53 12 2 -8 -2 -19 -10 -23z"/>
<path d="M1539 719 c-31 -31 -24 -105 13 -132 23 -17 34 -19 65 -11 23 5 38
15 38 24 0 15 -17 17 -47 5 -11 -4 -25 2 -40 17 l-23 23 58 3 c53 3 57 5 57
27 0 57 -79 86 -121 44z m81 -19 c0 -5 1 -13 3 -16 1 -4 -13 -8 -30 -9 -31 -3
-43 11 -26 28 10 11 53 8 53 -3z"/>
<path d="M1673 728 c3 -7 17 -41 33 -76 26 -62 27 -64 10 -98 -16 -35 -16 -35
6 -32 17 2 31 26 69 111 45 103 46 107 25 107 -17 0 -26 -11 -40 -50 -10 -28
-21 -48 -25 -45 -3 4 -13 25 -21 48 -11 31 -22 43 -39 45 -17 3 -22 0 -18 -10z"/>
<path d="M2107 728 c-39 -30 -42 -102 -5 -134 25 -23 82 -23 108 1 28 25 28
97 0 125 -23 23 -77 27 -103 8z m81 -65 c2 -33 -1 -44 -16 -52 -28 -15 -55 8
-54 47 1 43 9 54 40 50 24 -3 27 -8 30 -45z"/>
<path d="M2356 727 c-27 -20 -13 -40 19 -25 28 12 55 5 55 -15 0 -9 -15 -17
-39 -21 -46 -7 -65 -27 -57 -60 7 -30 34 -40 69 -27 13 5 34 7 46 4 19 -5 21
-1 21 48 0 74 -17 103 -60 107 -19 2 -44 -3 -54 -11z m74 -91 c0 -20 -27 -39
-45 -32 -22 8 -18 25 8 36 31 12 37 12 37 -4z"/>
<path d="M2500 661 c0 -70 2 -79 20 -84 18 -5 20 0 20 43 0 64 7 80 36 80 17
0 24 6 24 20 0 22 -34 28 -46 9 -4 -8 -9 -8 -17 0 -28 28 -37 11 -37 -68z"/>
</g>
</svg>
