<svg xmlns="http://www.w3.org/2000/svg" version="1.1" xmlns:xlink="http://www.w3.org/1999/xlink" xmlns:svgjs="http://svgjs.dev/svgjs" width="100%" height="100%" viewBox="0 0 1000 600"><rect width="1000" height="600" x="0" y="0" fill="#9e2121"/><g><circle r="166.66666666666666" cx="261.5407358805338" cy="283.7629529587712" fill="#0000ff" transform="matrix(1.3175355685260037,0,0,1.3175355685260035,0,-73.8678175701724)"/><path d="M217.00995643846767 358.7629611671491L217.00995643846767 358.7629611671491Q204.51742770453905 358.7629611671491 198.06195831092998 350.2453279394705Q191.60648891732095 341.75758114416976 189.4546657861179 325.20049760685765Q187.3028426549149 308.61352763716775 187.3028426549149 284.0767666549778L187.3028426549149 284.0767666549778Q187.3028426549149 259.5698921051657 189.4546657861179 242.77371710883102Q191.60648891732095 225.9775421124964 198.06195831092998 217.4897953171956Q204.51742770453905 209.0020485218948 217.00995643846767 209.0020485218948L217.00995643846767 209.0020485218948Q227.97827712112746 209.0020485218948 233.8957907319358 215.75638223928206Q239.81330434274406 222.54060238904714 242.29387823010308 235.4515411762652Q244.7445656850843 248.36247996348334 245.1928621707516 266.4437715520642L245.1928621707516 266.4437715520642Q248.83900692084563 266.4437715520642 252.7242431299622 266.4437715520642Q256.5795929067009 266.4437715520642 260.46482911581745 266.4437715520642L260.46482911581745 266.4437715520642Q264.97768040486824 266.4437715520642 269.40087239678553 266.4437715520642Q273.79417795632503 266.4437715520642 277.8886191920863 266.65297657870894L277.8886191920863 266.65297657870894Q278.3369156777536 248.36247996348334 280.69794383560134 235.4515411762652Q283.0589719934491 222.54060238904714 288.9764856042574 215.6667229421486Q294.8939992150657 208.76295706287226 305.8623198977255 208.76295706287226L305.8623198977255 208.76295706287226Q318.35484863165414 208.76295706287226 324.8103180252632 217.3702495876843Q331.26578741887226 225.9775421124964 333.5072698472087 242.77371710883102Q335.778638707923 259.5698921051657 335.778638707923 284.0767666549778L335.778638707923 284.0767666549778Q335.778638707923 308.61352763716775 333.5072698472087 325.20049760685765Q331.26578741887226 341.75758114416976 324.8103180252632 350.1556686423371Q318.35484863165414 358.55375614050433 305.8623198977255 358.55375614050433L305.8623198977255 358.55375614050433Q290.38114792601493 358.55375614050433 284.7923850713627 345.19452086761896Q279.17373578433256 331.8651720271114 278.0978242187311 307.3284110449215L278.0978242187311 307.3284110449215Q273.1665628763908 307.5376160715662 267.57780002173854 307.5376160715662Q261.95915073470843 307.5376160715662 256.16118285341145 307.5376160715662L256.16118285341145 307.5376160715662Q253.35185820989636 307.5376160715662 250.57241999875913 307.5376160715662Q247.7630953552441 307.5376160715662 244.98365714410687 307.5376160715662L244.98365714410687 307.5376160715662Q243.90774557850534 331.8651720271114 238.1994369943418 345.31406659713025Q232.49112841017825 358.7629611671491 217.00995643846767 358.7629611671491Z " fill="white " transform="matrix(1.3175355685260037,0,0,1.3175355685260035,0,-73.8678175701724)"/><path d="M587.0803093988741 358.76295643492244L587.0803093988741 358.76295643492244Q576.2889426898371 358.76295643492244 570.6834272048652 351.6286639995035Q565.0779117198931 344.49437156408464 563.0095664339945 330.37566678642804Q560.9711971667318 316.2269859901352 560.9711971667318 295.303724982058L560.9711971667318 295.303724982058Q560.9711971667318 287.7497682857321 561.1810292971854 281.06511612985645Q561.3908614276388 274.3504879553446 561.6006935580924 268.5351403399191L561.6006935580924 268.5351403399191Q535.7014134564038 267.2461715385619 523.6210779460096 261.1910157740468Q511.54074243561547 255.1658360281678 511.54074243561547 240.26775476596953L511.54074243561547 240.26775476596953Q511.54074243561547 221.71259923015327 530.4256341764301 215.23777920473108Q549.3105259172448 208.76295917930892 587.2901415293276 208.76295917930892L587.2901415293276 208.76295917930892Q625.5095652905001 208.76295917930892 644.8141212922218 215.23777920473108Q664.1186772939435 221.71259923015327 664.1186772939435 240.26775476596953L664.1186772939435 240.26775476596953Q664.1186772939435 254.92602787907805 651.9484137276405 261.1010877181381Q639.7481741427017 267.2461715385619 614.0587261714664 268.5351403399191L614.0587261714664 268.5351403399191Q614.4783904323734 274.3504879553446 614.7181985814631 281.06511612985645Q614.9280307119167 287.7497682857321 614.9280307119167 295.303724982058L614.9280307119167 295.303724982058Q614.9280307119167 328.30732150052927 609.0827070778549 343.53513896772586Q603.2673594624296 358.76295643492244 587.0803093988741 358.76295643492244Z " fill="white" transform="matrix(1.3175355685260037,0,0,1.3175355685260035,0,-73.8678175701724)"/></g></svg>